<svg xmlns="http://www.w3.org/2000/svg" viewBox="0 0 64 64">
  <rect width="64" height="64" rx="10" fill="#000000"/>
  <g transform="translate(-9.4 -1.35) scale(1.15)">
    <path fill="#FFFFFF" fill-rule="evenodd" d="M14 14 L25 14 C30.5 14 34 17 34 22 C34 25 32.5 27 30 28 C33 29 35 31.5 35 35 C35 40.5 31 44 24.5 44 L14 44 Z M20 19 L20 26 L24.5 26 C27 26 28 24.5 28 22.5 C28 20.5 27 19 24.5 19 Z M20 31 L20 39 L24 39 C27.5 39 29 37.5 29 35 C29 32.5 27.5 31 24 31 Z"/>
    <path fill="#FFFFFF" d="M38 14 L44 14 L44 25 L52 25 L52 14 L58 14 L58 44 L52 44 L52 31 L44 31 L44 44 L38 44 Z"/>
  </g>
</svg>
